<svg xmlns="http://www.w3.org/2000/svg" viewBox="0 0 96 96" color="#795912"><defs><path id="k-C" d="M12-14L-6-14L-10-10L-10 10L-6 14L12 14"/><path id="k-S" d="M12-14L-6-14L-10-10L-10-4L-6 0L6 0L10 4L10 10L6 14L-12 14"/><mask id="inline" maskUnits="userSpaceOnUse" x="-200" y="-200" width="600" height="600"><rect x="-200" y="-200" width="600" height="600" fill="white"/><g fill="none" stroke-linecap="butt" stroke-linejoin="miter" stroke-miterlimit="3" stroke="black" stroke-width="3.2"><use href="#k-C" transform="translate(-20 0)"/><use href="#k-S" transform="translate(20 0)"/></g></mask><mask id="ball" maskUnits="userSpaceOnUse" x="-200" y="-200" width="600" height="600"><rect x="-200" y="-200" width="600" height="600" fill="white"/><circle cx="0" cy="-9.4" r="1.85" fill="black"/><circle cx="-8.1" cy="-4.7" r="1.85" fill="black"/><circle cx="-2.7" cy="-4.7" r="1.99" fill="black"/><circle cx="2.7" cy="-4.7" r="1.99" fill="black"/><circle cx="8.1" cy="-4.7" r="1.85" fill="black"/><circle cx="-5.4" cy="0" r="1.99" fill="black"/><circle cx="0" cy="0" r="2.05" fill="black"/><circle cx="5.4" cy="0" r="1.99" fill="black"/><circle cx="-8.1" cy="4.7" r="1.85" fill="black"/><circle cx="-2.7" cy="4.7" r="1.99" fill="black"/><path d="M3.5 13.9A14.5 14.5 0 0 0 13.9 3.5" fill="none" stroke="black" stroke-width="2.4" stroke-linecap="round"/></mask></defs><g fill="currentColor" stroke="currentColor"><g transform="translate(44 60) scale(.95) skewX(-10)"><g fill="none" stroke-linecap="butt" stroke-linejoin="miter" stroke-miterlimit="3" stroke-width="12" mask="url(#inline)"><use href="#k-C" transform="translate(-20 0)"/><use href="#k-S" transform="translate(20 0)"/></g></g><g transform="translate(75 27) scale(1.15)" stroke="none"><path d="M-54 14L-17 4.5L-17 9Z"/><path d="M-40 23L-14 10.5L-14 14.5Z"/><circle r="15" mask="url(#ball)"/></g></g></svg>